<?xml version="1.0" encoding="UTF-8"?>
<svg id="Layer_2" data-name="Layer 2" xmlns="http://www.w3.org/2000/svg" viewBox="0 0 129.6 148.58">
  <defs>
    <style>
      .cls-1 {
        fill: #fff;
      }
    </style>
  </defs>
  <g id="Layer_1-2" data-name="Layer 1">
    <path class="cls-1" d="M116.07,71.58v.02H41.27c.63-16.54,14.85-29.81,32.3-29.81h2.71v-5.41h-2.71c-20.43,0-37.08,15.7-37.71,35.23H13.53v-1.37c0-31.27,25.44-56.7,56.7-56.7h6.77V0h-6.77C31.51,0,0,31.51,0,70.23v6.77h6.77v.02h81.56c-.63,16.54-14.85,29.81-32.3,29.81h-2.71v5.41h2.71c20.43,0,37.08-15.7,37.71-35.22h22.32v1.33c0,31.27-25.44,56.7-56.7,56.7h-6.77v13.53h6.77c38.73,0,70.24-31.51,70.24-70.23v-6.77h-13.53Z"/>
  </g>
</svg>